<?xml version="1.0" encoding="UTF-8" standalone="no"?>
<!DOCTYPE svg PUBLIC "-//W3C//DTD SVG 1.1//EN" "http://www.w3.org/Graphics/SVG/1.1/DTD/svg11.dtd">
<svg width="100%" height="100%" viewBox="0 0 104 104" version="1.1" xmlns="http://www.w3.org/2000/svg" xmlns:xlink="http://www.w3.org/1999/xlink" xml:space="preserve" xmlns:serif="http://www.serif.com/" style="fill-rule:evenodd;clip-rule:evenodd;stroke-linejoin:round;stroke-miterlimit:2;">
    <g id="Group_20" transform="matrix(1,0,0,1,-4467,-528.59)">
        <g>
            <g id="Ellipse_2" transform="matrix(1,0,0,1,4467,528.59)">
                <path d="M51.913,0C80.564,0 103.825,23.261 103.825,51.913C103.825,80.564 80.564,103.825 51.913,103.825C23.261,103.825 0,80.564 0,51.913C0,23.261 23.261,0 51.913,0ZM51.913,6.76C76.833,6.76 97.066,26.992 97.066,51.913C97.066,76.833 76.833,97.066 51.913,97.066C26.992,97.066 6.76,76.833 6.76,51.913C6.76,26.992 26.992,6.76 51.913,6.76Z"/>
            </g>
            <g transform="matrix(90,0,0,90,4498,609.59)">
                <g id="i">
                    <path d="M0.084,0L0.084,-0.089L0.198,-0.089L0.198,-0.368L0.09,-0.368L0.09,-0.457L0.312,-0.457L0.312,-0.089L0.416,-0.089L0.416,0L0.084,0ZM0.25,-0.553C0.231,-0.553 0.214,-0.56 0.2,-0.573C0.186,-0.586 0.179,-0.602 0.179,-0.621C0.179,-0.641 0.186,-0.657 0.199,-0.67C0.212,-0.683 0.229,-0.689 0.25,-0.689C0.269,-0.689 0.285,-0.682 0.3,-0.669C0.314,-0.656 0.321,-0.64 0.321,-0.621C0.321,-0.602 0.314,-0.586 0.3,-0.573C0.285,-0.56 0.269,-0.553 0.25,-0.553Z" style="fill-rule:nonzero;"/>
                </g>
            </g>
        </g>
    </g>
</svg>
